HIERARCHY
ROOT hip
{
  OFFSET 0 0 0
  CHANNELS 6 Xposition Yposition Zposition Zrotation Yrotation Xrotation
  JOINT abdomen
  {
    OFFSET 0 20.6881 -0.73152
    CHANNELS 3 Zrotation Xrotation Yrotation
    JOINT chest
    {
      OFFSET 0 11.7043 -0.48768
      CHANNELS 3 Zrotation Xrotation Yrotation
      JOINT neck
      {
        OFFSET 0 22.1894 -2.19456
        CHANNELS 3 Zrotation Xrotation Yrotation
        JOINT head
        {
          OFFSET -0.24384 7.07133 1.2192
          CHANNELS 3 Zrotation Xrotation Yrotation
          JOINT leftEye
          {
            OFFSET 4.14528 8.04674 8.04672
            CHANNELS 3 Zrotation Xrotation Yrotation
            End Site
            {
              OFFSET 1 0 0
            }
          }
          JOINT rightEye
          {
            OFFSET -3.6576 8.04674 8.04672
            CHANNELS 3 Zrotation Xrotation Yrotation
            End Site
            {
              OFFSET 1 0 0
            }
          }
        }
      }
      JOINT rCollar
      {
        OFFSET -2.68224 19.2634 -4.8768
        CHANNELS 3 Zrotation Xrotation Yrotation
        JOINT rShldr
        {
          OFFSET -8.77824 -1.95073 1.46304
          CHANNELS 3 Zrotation Xrotation Yrotation
          JOINT rForeArm
          {
            OFFSET -28.1742 -1.7115 0.48768
            CHANNELS 3 Zrotation Xrotation Yrotation
            JOINT rHand
            {
              OFFSET -22.5879 0.773209 7.07136
              CHANNELS 3 Zrotation Xrotation Yrotation
              JOINT rThumb1
              {
                OFFSET -1.2192 -0.487915 3.41376
                CHANNELS 3 Zrotation Xrotation Yrotation
                JOINT rThumb2
                {
                  OFFSET -3.37035 -0.52449 3.41376
                  CHANNELS 3 Zrotation Xrotation Yrotation
                  End Site
                  {
                    OFFSET -1.78271 -1.18214 1.43049
                  }
                }
              }
              JOINT rIndex1
              {
                OFFSET -7.75947 0.938293 5.60832
                CHANNELS 3 Zrotation Xrotation Yrotation
                JOINT rIndex2
                {
                  OFFSET -2.54057 -0.884171 1.56538
                  CHANNELS 3 Zrotation Xrotation Yrotation
                  End Site
                  {
                    OFFSET -1.62519 -0.234802 1.16502
                  }
                }
              }
              JOINT rMid1
              {
                OFFSET -8.24714 1.18213 3.41376
                CHANNELS 3 Zrotation Xrotation Yrotation
                JOINT rMid2
                {
                  OFFSET -3.10165 -0.590103 1.0647
                  CHANNELS 3 Zrotation Xrotation Yrotation
                  End Site
                  {
                    OFFSET -2.48547 -0.328903 0.83742
                  }
                }
              }
              JOINT rRing1
              {
                OFFSET -8.82822 0.546677 1.51678
                CHANNELS 3 Zrotation Xrotation Yrotation
                JOINT rRing2
                {
                  OFFSET -2.60934 -0.819778 -0.0198488
                  CHANNELS 3 Zrotation Xrotation Yrotation
                  End Site
                  {
                    OFFSET -2.33842 -0.294052 0.168128
                  }
                }
              }
              JOINT rPinky1
              {
                OFFSET -8.27202 -0.0477905 -0.4584
                CHANNELS 3 Zrotation Xrotation Yrotation
                JOINT rPinky2
                {
                  OFFSET -1.82734 -0.647385 -0.700984
                  CHANNELS 3 Zrotation Xrotation Yrotation
                  End Site
                  {
                    OFFSET -1.69225 -0.51767 -0.607171
                  }
                }
              }
            }
          }
        }
      }
      JOINT lCollar
      {
        OFFSET 2.68224 19.2634 -4.8768
        CHANNELS 3 Zrotation Xrotation Yrotation
        JOINT lShldr
        {
          OFFSET 8.77824 -1.95073 1.46304
          CHANNELS 3 Zrotation Xrotation Yrotation
          JOINT lForeArm
          {
            OFFSET 28.1742 -1.7115 0.48768
            CHANNELS 3 Zrotation Xrotation Yrotation
            JOINT lHand
            {
              OFFSET 22.5879 0.773209 7.07136
              CHANNELS 3 Zrotation Xrotation Yrotation
              JOINT lThumb1
              {
                OFFSET 1.2192 -0.487915 3.41376
                CHANNELS 3 Zrotation Xrotation Yrotation
                JOINT lThumb2
                {
                  OFFSET 3.37035 -0.52449 3.41376
                  CHANNELS 3 Zrotation Xrotation Yrotation
                  End Site
                  {
                    OFFSET 1.78271 -1.18214 1.43049
                  }
                }
              }
              JOINT lIndex1
              {
                OFFSET 7.75947 0.938293 5.60832
                CHANNELS 3 Zrotation Xrotation Yrotation
                JOINT lIndex2
                {
                  OFFSET 2.54057 -0.884171 1.56538
                  CHANNELS 3 Zrotation Xrotation Yrotation
                  End Site
                  {
                    OFFSET 1.62519 -0.234802 1.16502
                  }
                }
              }
              JOINT lMid1
              {
                OFFSET 8.24714 1.18213 3.41376
                CHANNELS 3 Zrotation Xrotation Yrotation
                JOINT lMid2
                {
                  OFFSET 3.10165 -0.590103 1.0647
                  CHANNELS 3 Zrotation Xrotation Yrotation
                  End Site
                  {
                    OFFSET 2.48547 -0.328903 0.83742
                  }
                }
              }
              JOINT lRing1
              {
                OFFSET 8.82822 0.546677 1.51678
                CHANNELS 3 Zrotation Xrotation Yrotation
                JOINT lRing2
                {
                  OFFSET 2.60934 -0.819778 -0.0198488
                  CHANNELS 3 Zrotation Xrotation Yrotation
                  End Site
                  {
                    OFFSET 2.33842 -0.294052 0.168128
                  }
                }
              }
              JOINT lPinky1
              {
                OFFSET 8.27202 -0.0477905 -0.4584
                CHANNELS 3 Zrotation Xrotation Yrotation
                JOINT lPinky2
                {
                  OFFSET 1.82734 -0.647385 -0.700984
                  CHANNELS 3 Zrotation Xrotation Yrotation
                  End Site
                  {
                    OFFSET 1.69225 -0.51767 -0.607171
                  }
                }
              }
            }
          }
        }
      }
    }
  }
  JOINT rButtock
  {
    OFFSET -8.77824 4.35084 1.2192
    CHANNELS 3 Zrotation Xrotation Yrotation
    JOINT rThigh
    {
      OFFSET 0 -1.70687 -2.19456
      CHANNELS 3 Zrotation Xrotation Yrotation
      JOINT rShin
      {
        OFFSET 0 -36.8199 0.73152
        CHANNELS 3 Zrotation Xrotation Yrotation
        JOINT rFoot
        {
          OFFSET 0.73152 -45.1104 -5.12064
          CHANNELS 3 Zrotation Xrotation Yrotation
          End Site
          {
            OFFSET -1.1221 -3.69964 12.103
          }
        }
      }
    }
  }
  JOINT lButtock
  {
    OFFSET 8.77824 4.35084 1.2192
    CHANNELS 3 Zrotation Xrotation Yrotation
    JOINT lThigh
    {
      OFFSET 0 -1.70687 -2.19456
      CHANNELS 3 Zrotation Xrotation Yrotation
      JOINT lShin
      {
        OFFSET 0 -36.8199 0.73152
        CHANNELS 3 Zrotation Xrotation Yrotation
        JOINT lFoot
        {
          OFFSET -0.73152 -45.1104 -5.12064
          CHANNELS 3 Zrotation Xrotation Yrotation
          End Site
          {
            OFFSET 1.1221 -3.69964 12.103
          }
        }
      }
    }
  }
}
MOTION
Frames:	4
Frame Time:	0.03333
-0.660884752869606 -1.7793014645576477 1.046924665570259 14.751668930053711 36.02327346801758 12.64867115020752 -13.328095436096191 7.956300735473633 -2.607541799545288 5.896544456481934 -11.071081161499023 0.17991751432418823 -9.83386516571045 14.057835578918457 -11.999924659729004 5.3435587882995605 -27.87068748474121 -22.61321449279785 0.41595733165740967 -0.37833482027053833 -1.046245813369751 0.5752912759780884 -0.565382182598114 -0.3184322416782379 0.16274979710578918 -0.009579294361174107 -0.7099759578704834 34.186988830566406 -21.381772994995117 61.67724609375 -21.89736557006836 -16.32379150390625 44.27852249145508 0.9345577359199524 2.1454997062683105 0.18578530848026276 0.3186529874801636 0.527195930480957 0.03410999849438667 0.48020604252815247 0.011319313198328018 -0.036792557686567307 0.5892640352249146 -0.2710523009300232 0.005996587220579386 7.797313690185547 4.9480767250061035 -0.3163720667362213 1.6139938831329346 0.026829635724425316 0.06608711183071136 2.173973798751831 1.3112666606903076 0.47682321071624756 -0.9380871653556824 0.12180786579847336 -0.717957615852356 10.746702194213867 1.0028126239776611 -0.2425418198108673 -0.2981402575969696 0.805359423160553 -0.2622295022010803 2.6423685550689697 -1.0105010271072388 0.19308096170425415 0.5789709687232971 -0.3353686034679413 -0.14221179485321045 -111.0114517211914 56.4244384765625 40.83656311035156 27.38288688659668 -45.621768951416016 -92.799560546875 5.296665668487549 -57.48417282104492 11.554953575134277 -0.5819073915481567 0.11358117312192917 -0.7000267505645752 -0.5523090362548828 -1.0689847469329834 0.8340771794319153 -0.22992482781410217 -0.2385840117931366 0.5308879017829895 -8.023489952087402 6.072257995605469 -0.5805954933166504 1.3553892374038696 1.0939807891845703 0.5789182782173157 -2.145193099975586 1.5513579845428467 -0.03544260561466217 0.08081209659576416 -0.324596643447876 0.12358072400093079 -10.201417922973633 0.8616839051246643 -0.08886299282312393 0.28128573298454285 0.21574334800243378 -0.009404115378856659 -3.051455497741699 -0.9831371903419495 -0.3778562843799591 0.5374868512153625 -0.3097204864025116 -1.2944891452789307 -68.76274871826172 -57.30621337890625 -67.53472137451172 1.2875521183013916 67.96109771728516 0.15751954913139343 -2.4081966876983643 3.1806137561798096 -4.01139497756958 0.20706650614738464 0.7587776780128479 -0.011262508109211922 10.933767318725586 14.91700267791748 -1.6717332601547241 -0.005614927504211664 31.552047729492188 -2.2491376399993896 -0.1679716855287552 -5.62770938873291 23.5992488861084
-0.7030898705124855 -1.8027214333415031 1.0293184779584408 13.529428482055664 34.55886459350586 9.419062614440918 -12.926462173461914 9.828039169311523 -1.5644595623016357 6.028554916381836 -11.570889472961426 0.021488042548298836 -10.252525329589844 14.402055740356445 -11.789871215820312 5.939844131469727 -27.8795108795166 -21.547706604003906 0.5917344689369202 -0.8094648718833923 -0.8355169296264648 0.3535892367362976 -0.7905752658843994 -0.1035744696855545 0.12269507348537445 -0.0519232340157032 -0.7084690928459167 32.76277542114258 -17.50046730041504 59.94614791870117 -21.592029571533203 -16.657455444335938 44.4609260559082 0.8476338386535645 3.2573370933532715 0.42102012038230896 0.00501079298555851 0.5155850052833557 -0.12372487783432007 0.8194060921669006 -0.009593983180820942 -0.28867924213409424 1.1898306608200073 -0.9409749507904053 -0.0740751400589943 7.64643669128418 4.802743911743164 -0.5980128049850464 1.5435901880264282 0.1464182436466217 0.46021997928619385 2.32954740524292 1.5554100275039673 0.6585033535957336 -1.286503791809082 -0.11037280410528183 -0.4059979021549225 10.948577880859375 1.1265265941619873 -0.3604899048805237 0.005794376600533724 0.8157784342765808 -0.5380573272705078 2.667175769805908 -0.7853032946586609 0.9318655729293823 0.47077956795692444 -0.7197293639183044 -0.24493102729320526 -105.80612182617188 55.73494338989258 36.27716827392578 28.50187110900879 -43.33210372924805 -88.4524154663086 4.177132606506348 -52.92597579956055 10.106457710266113 -0.9058892130851746 0.4079563021659851 -0.39981740713119507 -0.6915273070335388 -1.0095539093017578 1.2432889938354492 -0.2360430210828781 -0.22410330176353455 0.580237865447998 -7.860601425170898 5.638171195983887 -0.5835269093513489 1.3832474946975708 1.2856417894363403 0.31386715173721313 -2.1522934436798096 1.4069570302963257 0.2667692303657532 -0.08562280982732773 -0.2972494065761566 0.48079267144203186 -10.36233139038086 0.7483906745910645 -0.48453107476234436 0.17491593956947327 0.2070886492729187 0.3074009120464325 -2.83590030670166 -1.165156602859497 -0.41785311698913574 0.5308679342269897 -0.6399849653244019 -1.5444377660751343 -62.854827880859375 -56.31785202026367 -61.29707717895508 2.272693634033203 70.34029388427734 -0.9226466417312622 -2.129178285598755 0.9224006533622742 -1.07358717918396 0.21112394332885742 0.7143785953521729 -0.4758812487125397 10.169650077819824 6.959165096282959 1.2651467323303223 -0.18231114745140076 38.751365661621094 -2.350592613220215 0.5389583706855774 -8.281576156616211 22.39906120300293
-0.7428465411067009 -1.837417297065258 1.0158110409975052 17.29070281982422 28.498756408691406 9.403495788574219 -17.222023010253906 10.210271835327148 1.6410422325134277 5.544046401977539 -11.552738189697266 0.7994198799133301 -10.861019134521484 14.190404891967773 -13.56895923614502 6.650208473205566 -29.101491928100586 -24.701997756958008 0.11129949986934662 -1.0935240983963013 -0.8352920413017273 0.14760449528694153 -0.9258196949958801 0.004589795600622892 -0.15692074596881866 -0.2862168252468109 -0.36118870973587036 31.54146957397461 -28.338197708129883 69.63408660888672 -11.718562126159668 -6.492034435272217 21.982343673706055 0.002315060468390584 28.598827362060547 3.8099582195281982 -0.43090295791625977 0.3082432448863983 -0.10335846990346909 0.6963266134262085 0.14784657955169678 -0.013745677657425404 1.247733473777771 -0.8679399490356445 -0.15228697657585144 7.2367777824401855 5.306699275970459 -0.7290765047073364 1.4701364040374756 -0.25890669226646423 0.43243610858917236 2.681248188018799 2.2034153938293457 0.3503364324569702 -1.1849702596664429 -0.09407737851142883 -0.5042151212692261 10.48856258392334 1.340722680091858 -0.07239235192537308 -0.39697328209877014 0.6320252418518066 0.10348916798830032 2.7131540775299072 -1.3005019426345825 0.8972336649894714 0.2451934814453125 -0.862533450126648 -0.015596535988152027 -120.23976135253906 46.658416748046875 58.34259796142578 26.662569046020508 -46.329689025878906 -95.6097640991211 12.31659984588623 -67.35189819335938 18.999378204345703 -0.8643066883087158 0.3479654788970947 -0.21478328108787537 -0.7845370173454285 -0.506086528301239 1.1178228855133057 0.0029029690194875 -0.45907241106033325 0.28494927287101746 -7.215745449066162 6.029831409454346 -1.075331449508667 0.9955657720565796 0.5957146883010864 0.5901594758033752 -2.5647366046905518 1.1880134344100952 0.17530196905136108 0.5010198354721069 -0.3461012840270996 0.26811453700065613 -10.415319442749023 1.1440311670303345 -0.15386265516281128 0.1423283964395523 0.5592629313468933 0.44881880283355713 -2.6939826011657715 -1.37822425365448 0.1509142518043518 0.014878807589411736 -0.4724811911582947 -1.1109617948532104 -75.10236358642578 -57.422183990478516 -71.09630584716797 2.491997480392456 74.72986602783203 -1.0228906869888306 -0.7647818326950073 1.7223045825958252 5.765398979187012 0.058399002999067307 0.6512634754180908 -0.9150558710098267 8.142424583435059 13.701216697692871 0.2306077927350998 -0.3989051580429077 30.798633575439453 -1.9026240110397339 1.9548426866531372 -9.589127540588379 28.18206024169922
-0.7734475657343864 -1.8776500597596169 1.010473258793354 15.966143608093262 21.503925323486328 10.514077186584473 -17.83834457397461 10.703917503356934 3.6568968296051025 4.596873760223389 -11.100571632385254 1.8820260763168335 -9.984939575195312 14.281569480895996 -12.027361869812012 6.318729877471924 -28.584197998046875 -22.605701446533203 -0.3915497660636902 -0.7093837261199951 -0.8381625413894653 0.20675280690193176 -0.1120283305644989 0.23218460381031036 -0.5282534956932068 -0.20663286745548248 -0.26942065358161926 28.942106246948242 -27.723434448242188 70.14950561523438 -9.080248832702637 -3.971918821334839 15.81844711303711 -0.25838640332221985 28.964157104492188 4.155308723449707 -0.4216320216655731 0.2095503807067871 0.2621152698993683 0.7000074982643127 0.5675585269927979 0.2931026816368103 0.9958752393722534 -0.31106331944465637 0.19199055433273315 7.4855523109436035 5.673304557800293 -0.43966639041900635 1.0942013263702393 -0.4939299523830414 0.03506798669695854 2.7484564781188965 1.6142592430114746 0.013338667340576649 -0.5891607999801636 0.11541841179132462 -0.0005935693625360727 9.783013343811035 0.8946813344955444 -0.006150389090180397 -0.649023711681366 0.17627198994159698 0.8389591574668884 2.7202250957489014 -1.0741753578186035 0.5232686996459961 -0.005774520803242922 -0.9329438209533691 -0.2981010377407074 -117.32537841796875 42.825748443603516 56.083518981933594 27.452341079711914 -43.895572662353516 -91.75433349609375 12.148835182189941 -67.19091033935547 18.677305221557617 -0.5751639604568481 0.057542018592357635 -0.2695695161819458 -0.000891268253326416 -0.2487032562494278 0.9952021837234497 0.43124330043792725 -0.39312589168548584 0.1447170227766037 -6.706592559814453 5.615440845489502 -1.056782841682434 0.884128987789154 0.07279515266418457 0.17800934612751007 -2.8200440406799316 1.3353912830352783 0.009806564077734947 0.9111242294311523 -0.4588559865951538 -0.25084108114242554 -10.759780883789062 1.287818193435669 0.1711525321006775 0.18434180319309235 0.04876406490802765 0.5249620079994202 -2.7747256755828857 -1.2888667583465576 0.5935824513435364 -0.2181898057460785 0.25239986181259155 -0.9899808764457703 -77.10462188720703 -57.235939025878906 -71.965576171875 0.5937538146972656 77.53189086914062 1.2222979068756104 0.13867349922657013 0.5130007266998291 7.889615058898926 -0.017558827996253967 0.6132147312164307 -0.8114215135574341 9.965814590454102 11.90676498413086 1.4494998455047607 -0.21493300795555115 29.06333351135254 -1.8517779111862183 2.6641461849212646 -10.1979341506958 28.510982513427734
